<?xml version="1.0" encoding="UTF-8" standalone="no"?>
<!-- Created with Inkscape (http://www.inkscape.org/) -->

<svg
   xmlns:dc="http://purl.org/dc/elements/1.1/"
   xmlns:cc="http://creativecommons.org/ns#"
   xmlns:rdf="http://www.w3.org/1999/02/22-rdf-syntax-ns#"
   xmlns:svg="http://www.w3.org/2000/svg"
   xmlns="http://www.w3.org/2000/svg"
   xmlns:sodipodi="http://sodipodi.sourceforge.net/DTD/sodipodi-0.dtd"
   xmlns:inkscape="http://www.inkscape.org/namespaces/inkscape"
   width="221.22383mm"
   height="30.783007mm"
   viewBox="0 0 221.22383 30.783008"
   version="1.1"
   id="svg4491"
   inkscape:export-filename="C:\Users\Wildcat\Desktop\bitmap4.png"
   inkscape:export-xdpi="17.379498"
   inkscape:export-ydpi="17.379498"
   inkscape:version="0.92.2 (5c3e80d, 2017-08-06)"
   sodipodi:docname="SiteTitle.svg">
  <defs
     id="defs4485" />
  <sodipodi:namedview
     id="base"
     pagecolor="#ffffff"
     bordercolor="#666666"
     borderopacity="1.0"
     inkscape:pageopacity="0.0"
     inkscape:pageshadow="2"
     inkscape:zoom="1"
     inkscape:cx="211.02533"
     inkscape:cy="-80.313955"
     inkscape:document-units="mm"
     inkscape:current-layer="text5042"
     showgrid="false"
     fit-margin-top="5.4"
     fit-margin-left="1"
     fit-margin-right="1"
     fit-margin-bottom="1"
     inkscape:window-width="1920"
     inkscape:window-height="1018"
     inkscape:window-x="-4"
     inkscape:window-y="-4"
     inkscape:window-maximized="1" />
  <metadata
     id="metadata4488">
    <rdf:RDF>
      <cc:Work
         rdf:about="">
        <dc:format>image/svg+xml</dc:format>
        <dc:type
           rdf:resource="http://purl.org/dc/dcmitype/StillImage" />
        <dc:title />
      </cc:Work>
    </rdf:RDF>
  </metadata>
  <g
     inkscape:label="レイヤー 1"
     inkscape:groupmode="layer"
     id="layer1"
     transform="translate(-15.136629,-123.29311)">
    <g
       aria-label="HIJIKI's Workshop"
       style="font-style:normal;font-variant:normal;font-weight:normal;font-stretch:normal;font-size:10.58333302px;line-height:125%;font-family:Arial;-inkscape-font-specification:Arial;letter-spacing:0px;word-spacing:0px;fill:#00ffff;fill-opacity:1;stroke:none;stroke-width:0.26458332px;stroke-linecap:butt;stroke-linejoin:miter;stroke-opacity:1"
       id="text5042">
      <path
         d="m 31.292293,147.32143 h -4.402832 v -7.04453 h -6.35 v 7.04453 h -4.402832 v -16.9292 h 4.402832 v 6.53603 h 6.35 v -6.53603 h 4.402832 z"
         style="font-style:normal;font-variant:normal;font-weight:bold;font-stretch:normal;font-size:25.39999962px;font-family:Aharoni;-inkscape-font-specification:'Aharoni Bold';fill:#ffffff;fill-opacity:1;stroke:none;stroke-width:0.26458332px;stroke-opacity:1"
         id="path4559" />
      <path
         d="m 39.242195,147.32143 h -4.402832 v -16.9292 h 4.402832 z"
         style="font-style:normal;font-variant:normal;font-weight:bold;font-stretch:normal;font-size:25.39999962px;font-family:Aharoni;-inkscape-font-specification:'Aharoni Bold';fill:#ffffff;fill-opacity:1;stroke:none;stroke-width:0.26458332px;stroke-opacity:1"
         id="path4561" />
      <path
         d="m 51.173249,142.10004 q 0,1.02939 -0.124024,1.68672 -0.260449,1.40146 -1.500683,2.53008 -1.599902,1.46347 -3.906738,1.46347 -2.728516,0 -4.415235,-2.50527 l 2.877344,-2.93936 q 0.198438,1.64952 1.438672,1.64952 1.265039,0 1.240234,-1.95957 l -0.0124,-0.93018 v -10.70322 h 4.402832 z"
         style="font-style:normal;font-variant:normal;font-weight:bold;font-stretch:normal;font-size:25.39999962px;font-family:Aharoni;-inkscape-font-specification:'Aharoni Bold';fill:#ffffff;fill-opacity:1;stroke:none;stroke-width:0.26458332px;stroke-opacity:1"
         id="path4563" />
      <path
         d="m 59.135554,147.32143 h -4.402832 v -16.9292 h 4.402832 z"
         style="font-style:normal;font-variant:normal;font-weight:bold;font-stretch:normal;font-size:25.39999962px;font-family:Aharoni;-inkscape-font-specification:'Aharoni Bold';fill:#ffffff;fill-opacity:1;stroke:none;stroke-width:0.26458332px;stroke-opacity:1"
         id="path4565" />
      <path
         d="m 78.545222,147.32143 h -5.705078 l -5.71748,-7.34219 v 7.34219 h -4.402832 v -16.9292 h 4.402832 v 6.98252 l 5.370215,-6.98252 h 5.432226 l -6.72207,8.01191 z"
         style="font-style:normal;font-variant:normal;font-weight:bold;font-stretch:normal;font-size:25.39999962px;font-family:Aharoni;-inkscape-font-specification:'Aharoni Bold';fill:#ffffff;fill-opacity:1;stroke:none;stroke-width:0.26458332px;stroke-opacity:1"
         id="path4567" />
      <path
         d="M 84.882822,147.32143 H 80.47999 v -16.9292 h 4.402832 z"
         style="font-style:normal;font-variant:normal;font-weight:bold;font-stretch:normal;font-size:25.39999962px;font-family:Aharoni;-inkscape-font-specification:'Aharoni Bold';fill:#ffffff;fill-opacity:1;stroke:none;stroke-width:0.26458332px;stroke-opacity:1"
         id="path4569" />
      <path
         d="m 91.270026,134.13774 -1.984375,4.50205 h -1.835546 l 1.252636,-4.50205 z"
         style="font-style:normal;font-variant:normal;font-weight:bold;font-stretch:normal;font-size:25.39999962px;font-family:Aharoni;-inkscape-font-specification:'Aharoni Bold';fill:#ffffff;fill-opacity:1;stroke:none;stroke-width:0.26458332px;stroke-opacity:1"
         id="path4571" />
      <path
         d="m 103.05225,143.43949 q 0,1.83555 -1.31465,3.00137 -1.47588,1.31465 -4.154782,1.31465 -2.368848,0 -4.60127,-1.32705 l 1.475879,-2.87735 q 1.748731,1.15342 3.249414,1.15342 1.277442,0 1.277442,-0.88056 0,-0.45889 -0.446485,-0.70694 -0.285254,-0.16123 -1.289844,-0.38447 -1.128613,-0.24805 -1.475878,-0.38447 -1.240235,-0.48369 -1.674317,-1.51309 -0.235644,-0.5581 -0.235644,-1.33945 0,-1.51309 1.029394,-2.6417 1.327051,-1.45108 4.092774,-1.45108 1.922367,0 3.733107,0.74414 l -1.37666,2.6293 q -1.14102,-0.58291 -2.182815,-0.58291 -1.227832,0 -1.227832,0.84336 0,0.38447 0.496094,0.62012 0.223242,0.11162 1.314649,0.33486 1.599904,0.33486 2.356444,1.0666 0.95498,0.91778 0.95498,2.38125 z"
         style="font-style:normal;font-variant:normal;font-weight:bold;font-stretch:normal;font-size:25.39999962px;font-family:Aharoni;-inkscape-font-specification:'Aharoni Bold';fill:#ffffff;fill-opacity:1;stroke:none;stroke-width:0.26458332px;stroke-opacity:1"
         id="path4573" />
      <path
         d="m 136.55099,130.39223 -5.40742,16.9292 h -4.48965 l -3.08819,-9.81026 -3.23701,9.81026 h -4.47724 l -5.04776,-16.9292 h 4.60127 l 2.93936,10.93886 3.58427,-10.93886 h 3.49747 l 3.33623,10.93886 3.1998,-10.93886 z"
         style="font-style:normal;font-variant:normal;font-weight:bold;font-stretch:normal;font-size:25.39999962px;font-family:Aharoni;-inkscape-font-specification:'Aharoni Bold';fill:#ffffff;fill-opacity:1;stroke:none;stroke-width:0.26458332px;stroke-opacity:1"
         id="path4575" />
      <path
         d="m 151.33458,141.56674 q 0,2.39365 -1.5751,4.10517 -1.90996,2.0836 -5.34541,2.0836 -3.44785,0 -5.35781,-2.0836 -1.5751,-1.71152 -1.5751,-4.20439 0,-2.24482 1.5875,-3.98115 1.92236,-2.096 5.46943,-2.096 3.26182,0 5.20899,2.096 1.5875,1.71152 1.5875,4.08037 z m -4.2292,0 q 0,-1.11621 -0.79375,-1.88516 -0.78135,-0.78134 -1.89756,-0.78134 -1.26504,0 -2.05879,0.94257 -0.64492,0.75655 -0.64492,1.72393 0,0.97978 0.64492,1.73633 0.79375,0.94258 2.05879,0.94258 1.12861,0 1.90996,-0.76895 0.78135,-0.78135 0.78135,-1.90996 z"
         style="font-style:normal;font-variant:normal;font-weight:bold;font-stretch:normal;font-size:25.39999962px;font-family:Aharoni;-inkscape-font-specification:'Aharoni Bold';fill:#ffffff;fill-opacity:1;stroke:none;stroke-width:0.26458332px;stroke-opacity:1"
         id="path4577" />
      <path
         d="m 162.29825,139.56996 q -0.85576,-0.40928 -1.73633,-0.40928 -2.00918,0 -2.60449,1.63711 -0.22324,0.59532 -0.22324,1.59991 v 4.92373 h -4.06797 v -11.50938 h 4.06797 v 1.88516 q 0.64492,-1.00459 1.38906,-1.45108 1.00459,-0.59531 2.38125,-0.59531 0.32246,0 0.79375,0.0372 z"
         style="font-style:normal;font-variant:normal;font-weight:bold;font-stretch:normal;font-size:25.39999962px;font-family:Aharoni;-inkscape-font-specification:'Aharoni Bold';fill:#ffffff;fill-opacity:1;stroke:none;stroke-width:0.26458332px;stroke-opacity:1"
         id="path4579" />
      <path
         d="m 178.38409,147.32143 h -5.70508 l -4.47725,-4.68809 v 4.68809 h -4.06797 v -18.62832 h 4.06797 v 11.26132 l 4.25401,-4.14238 h 5.58105 l -5.76709,5.3082 z"
         style="font-style:normal;font-variant:normal;font-weight:bold;font-stretch:normal;font-size:25.39999962px;font-family:Aharoni;-inkscape-font-specification:'Aharoni Bold';fill:#ffffff;fill-opacity:1;stroke:none;stroke-width:0.26458332px;stroke-opacity:1"
         id="path4581" />
      <path
         d="m 189.17412,143.43949 q 0,1.83555 -1.31465,3.00137 -1.47587,1.31465 -4.15478,1.31465 -2.36885,0 -4.60127,-1.32705 l 1.47588,-2.87735 q 1.74873,1.15342 3.24941,1.15342 1.27744,0 1.27744,-0.88056 0,-0.45889 -0.44648,-0.70694 -0.28525,-0.16123 -1.28984,-0.38447 -1.12862,-0.24805 -1.47588,-0.38447 -1.24024,-0.48369 -1.67432,-1.51309 -0.23564,-0.5581 -0.23564,-1.33945 0,-1.51309 1.02939,-2.6417 1.32705,-1.45108 4.09277,-1.45108 1.92237,0 3.73311,0.74414 l -1.37666,2.6293 q -1.14102,-0.58291 -2.18281,-0.58291 -1.22783,0 -1.22783,0.84336 0,0.38447 0.49609,0.62012 0.22324,0.11162 1.31465,0.33486 1.5999,0.33486 2.35644,1.0666 0.95498,0.91778 0.95498,2.38125 z"
         style="font-style:normal;font-variant:normal;font-weight:bold;font-stretch:normal;font-size:25.39999962px;font-family:Aharoni;-inkscape-font-specification:'Aharoni Bold';fill:#ffffff;fill-opacity:1;stroke:none;stroke-width:0.26458332px;stroke-opacity:1"
         id="path4583" />
      <path
         d="m 203.41201,147.32143 h -4.06797 v -5.82911 q 0,-1.53789 -0.34726,-2.03398 -0.5085,-0.73174 -1.52549,-0.73174 -0.94258,0 -1.5627,0.63252 -0.5705,0.58291 -0.5705,1.79834 v 6.16397 h -4.06797 v -18.62832 h 4.06797 v 8.57002 q 0.70693,-0.81856 1.30224,-1.15342 0.97979,-0.55811 2.41846,-0.55811 1.83555,0 3.02617,1.01699 1.32705,1.14102 1.32705,3.42305 z"
         style="font-style:normal;font-variant:normal;font-weight:bold;font-stretch:normal;font-size:25.39999962px;font-family:Aharoni;-inkscape-font-specification:'Aharoni Bold';fill:#ffffff;fill-opacity:1;stroke:none;stroke-width:0.26458332px;stroke-opacity:1"
         id="path4585" />
      <path
         d="m 219.59708,141.56674 q 0,2.39365 -1.5751,4.10517 -1.90996,2.0836 -5.34541,2.0836 -3.44785,0 -5.35781,-2.0836 -1.5751,-1.71152 -1.5751,-4.20439 0,-2.24482 1.5875,-3.98115 1.92237,-2.096 5.46944,-2.096 3.26181,0 5.20898,2.096 1.5875,1.71152 1.5875,4.08037 z m -4.2292,0 q 0,-1.11621 -0.79375,-1.88516 -0.78135,-0.78134 -1.89756,-0.78134 -1.26504,0 -2.05879,0.94257 -0.64492,0.75655 -0.64492,1.72393 0,0.97978 0.64492,1.73633 0.79375,0.94258 2.05879,0.94258 1.12862,0 1.90996,-0.76895 0.78135,-0.78135 0.78135,-1.90996 z"
         style="font-style:normal;font-variant:normal;font-weight:bold;font-stretch:normal;font-size:25.39999962px;font-family:Aharoni;-inkscape-font-specification:'Aharoni Bold';fill:#ffffff;fill-opacity:1;stroke:none;stroke-width:0.26458332px;stroke-opacity:1"
         id="path4587" />
      <path
         d="m 235.36045,141.57914 q 0,2.95176 -2.04638,4.71289 -1.62471,1.40147 -3.73311,1.40147 -1.22783,0 -2.30683,-0.5209 -0.62012,-0.29766 -1.27745,-0.97979 v 6.8833 h -4.06796 v -17.26406 h 4.06796 v 1.27744 q 0.54571,-0.71933 1.17823,-1.0666 1.04179,-0.58291 2.36885,-0.58291 2.1456,0 3.81992,1.47588 1.99677,1.76113 1.99677,4.66328 z m -4.22919,-0.0124 q 0,-0.97979 -0.62012,-1.69912 -0.78135,-0.91778 -2.00918,-0.91778 -1.10381,0 -1.87276,0.75655 -0.75654,0.75654 -0.75654,1.86035 0,1.09141 0.76895,1.86035 0.76894,0.75654 1.86035,0.75654 1.22783,0 1.99678,-0.91777 0.63252,-0.74414 0.63252,-1.69912 z"
         style="font-style:normal;font-variant:normal;font-weight:bold;font-stretch:normal;font-size:25.39999962px;font-family:Aharoni;-inkscape-font-specification:'Aharoni Bold';fill:#ffffff;fill-opacity:1;stroke:none;stroke-width:0.26458332px;stroke-opacity:1"
         id="path4589" />
    </g>
  </g>
</svg>
